<svg width="124" height="21" viewBox="0 0 124 21" fill="none" xmlns="http://www.w3.org/2000/svg">
<path d="M10.61 18.65L3.563 4.61V20H0.917V1.1H4.697L10.637 13.169L16.55 1.1H20.33V20H17.657V4.583L10.61 18.65ZM23.2279 13.115C23.2279 12.125 23.4079 11.198 23.7679 10.334C24.1459 9.452 24.6589 8.696 25.3069 8.066C25.9549 7.418 26.7109 6.914 27.5749 6.554C28.4569 6.176 29.3929 5.987 30.3829 5.987C31.3729 5.987 32.2999 6.176 33.1639 6.554C34.0459 6.914 34.8019 7.418 35.4319 8.066C36.0799 8.696 36.5839 9.452 36.9439 10.334C37.3219 11.198 37.5109 12.125 37.5109 13.115C37.5109 14.123 37.3219 15.068 36.9439 15.95C36.5839 16.814 36.0799 17.57 35.4319 18.218C34.8019 18.848 34.0459 19.352 33.1639 19.73C32.2999 20.09 31.3729 20.27 30.3829 20.27C29.3929 20.27 28.4569 20.09 27.5749 19.73C26.7109 19.352 25.9549 18.848 25.3069 18.218C24.6589 17.57 24.1459 16.814 23.7679 15.95C23.4079 15.068 23.2279 14.123 23.2279 13.115ZM30.3829 17.894C31.6249 17.894 32.6779 17.435 33.5419 16.517C34.4239 15.581 34.8649 14.447 34.8649 13.115C34.8649 11.783 34.4239 10.658 33.5419 9.74C32.6779 8.822 31.6249 8.363 30.3829 8.363C29.1409 8.363 28.0789 8.822 27.1969 9.74C26.3149 10.658 25.8739 11.783 25.8739 13.115C25.8739 14.447 26.3059 15.581 27.1699 16.517C28.0519 17.435 29.1229 17.894 30.3829 17.894ZM38.7687 18.218L40.2267 16.436C40.9467 16.994 41.6757 17.426 42.4137 17.732C43.1697 18.02 43.9347 18.164 44.7087 18.164C45.6807 18.164 46.4727 17.975 47.0847 17.597C47.6967 17.219 48.0027 16.724 48.0027 16.112C48.0027 15.626 47.8227 15.239 47.4627 14.951C47.1027 14.663 46.5447 14.465 45.7887 14.357L43.3047 14.006C41.9547 13.808 40.9287 13.394 40.2267 12.764C39.5427 12.116 39.2007 11.261 39.2007 10.199C39.2007 8.957 39.6957 7.958 40.6857 7.202C41.6757 6.428 42.9717 6.041 44.5737 6.041C45.5817 6.041 46.5357 6.185 47.4357 6.473C48.3537 6.761 49.2447 7.202 50.1087 7.796L48.7317 9.578C47.9757 9.074 47.2377 8.714 46.5177 8.498C45.8157 8.264 45.1047 8.147 44.3847 8.147C43.5567 8.147 42.8907 8.318 42.3867 8.66C41.8827 9.002 41.6307 9.452 41.6307 10.01C41.6307 10.514 41.8017 10.901 42.1437 11.171C42.5037 11.423 43.0887 11.612 43.8987 11.738L46.3827 12.089C47.7327 12.287 48.7587 12.71 49.4607 13.358C50.1807 14.006 50.5407 14.861 50.5407 15.923C50.5407 16.535 50.3877 17.111 50.0817 17.651C49.7937 18.173 49.3887 18.623 48.8667 19.001C48.3627 19.379 47.7597 19.685 47.0577 19.919C46.3557 20.135 45.5997 20.243 44.7897 20.243C43.6017 20.243 42.4857 20.072 41.4417 19.73C40.4157 19.388 39.5247 18.884 38.7687 18.218ZM59.3083 17.867C59.9923 17.867 60.6403 17.732 61.2523 17.462C61.8643 17.174 62.4493 16.751 63.0073 16.193L64.6273 17.948C63.9073 18.668 63.0793 19.235 62.1433 19.649C61.2073 20.045 60.2263 20.243 59.2003 20.243C58.2103 20.243 57.2833 20.063 56.4193 19.703C55.5553 19.325 54.8083 18.821 54.1783 18.191C53.5483 17.561 53.0443 16.814 52.6663 15.95C52.3063 15.068 52.1263 14.123 52.1263 13.115C52.1263 12.125 52.3063 11.198 52.6663 10.334C53.0443 9.452 53.5483 8.696 54.1783 8.066C54.8083 7.418 55.5553 6.914 56.4193 6.554C57.2833 6.176 58.2103 5.987 59.2003 5.987C60.2263 5.987 61.2253 6.194 62.1973 6.608C63.1693 7.004 64.0153 7.562 64.7353 8.282L63.0343 10.118C62.5123 9.56 61.9273 9.137 61.2793 8.849C60.6313 8.543 59.9563 8.39 59.2543 8.39C58.0123 8.39 56.9593 8.849 56.0953 9.767C55.2313 10.685 54.7993 11.801 54.7993 13.115C54.7993 14.465 55.2313 15.599 56.0953 16.517C56.9773 17.417 58.0483 17.867 59.3083 17.867ZM65.679 13.115C65.679 12.125 65.859 11.198 66.219 10.334C66.597 9.452 67.11 8.696 67.758 8.066C68.406 7.418 69.162 6.914 70.026 6.554C70.908 6.176 71.844 5.987 72.834 5.987C73.824 5.987 74.751 6.176 75.615 6.554C76.497 6.914 77.253 7.418 77.883 8.066C78.531 8.696 79.035 9.452 79.395 10.334C79.773 11.198 79.962 12.125 79.962 13.115C79.962 14.123 79.773 15.068 79.395 15.95C79.035 16.814 78.531 17.57 77.883 18.218C77.253 18.848 76.497 19.352 75.615 19.73C74.751 20.09 73.824 20.27 72.834 20.27C71.844 20.27 70.908 20.09 70.026 19.73C69.162 19.352 68.406 18.848 67.758 18.218C67.11 17.57 66.597 16.814 66.219 15.95C65.859 15.068 65.679 14.123 65.679 13.115ZM72.834 17.894C74.076 17.894 75.129 17.435 75.993 16.517C76.875 15.581 77.316 14.447 77.316 13.115C77.316 11.783 76.875 10.658 75.993 9.74C75.129 8.822 74.076 8.363 72.834 8.363C71.592 8.363 70.53 8.822 69.648 9.74C68.766 10.658 68.325 11.783 68.325 13.115C68.325 14.447 68.757 15.581 69.621 16.517C70.503 17.435 71.574 17.894 72.834 17.894ZM85.2159 0.505998V20H82.5159V1.1L85.2159 0.505998ZM89.7457 4.043C89.2957 4.043 88.9087 3.881 88.5847 3.557C88.2607 3.215 88.0987 2.819 88.0987 2.369C88.0987 1.919 88.2607 1.532 88.5847 1.208C88.9087 0.865999 89.2957 0.694999 89.7457 0.694999C90.1957 0.694999 90.5827 0.865999 90.9067 1.208C91.2487 1.532 91.4197 1.919 91.4197 2.369C91.4197 2.819 91.2487 3.215 90.9067 3.557C90.5827 3.881 90.1957 4.043 89.7457 4.043ZM91.0957 6.257V20H88.3957V6.257H91.0957ZM94.2756 20V6.257H96.9756V7.634C97.5156 7.094 98.1276 6.689 98.8116 6.419C99.5136 6.131 100.279 5.987 101.107 5.987C102.673 5.987 103.96 6.491 104.968 7.499C105.976 8.489 106.48 9.776 106.48 11.36V20H103.78V11.819C103.78 10.739 103.465 9.893 102.835 9.281C102.223 8.651 101.404 8.336 100.378 8.336C99.6576 8.336 99.0006 8.489 98.4066 8.795C97.8306 9.101 97.3536 9.542 96.9756 10.118V20H94.2756ZM108.974 13.115C108.974 12.125 109.154 11.198 109.514 10.334C109.892 9.452 110.405 8.696 111.053 8.066C111.701 7.418 112.457 6.914 113.321 6.554C114.203 6.176 115.139 5.987 116.129 5.987C117.119 5.987 118.046 6.176 118.91 6.554C119.792 6.914 120.548 7.418 121.178 8.066C121.826 8.696 122.33 9.452 122.69 10.334C123.068 11.198 123.257 12.125 123.257 13.115C123.257 14.123 123.068 15.068 122.69 15.95C122.33 16.814 121.826 17.57 121.178 18.218C120.548 18.848 119.792 19.352 118.91 19.73C118.046 20.09 117.119 20.27 116.129 20.27C115.139 20.27 114.203 20.09 113.321 19.73C112.457 19.352 111.701 18.848 111.053 18.218C110.405 17.57 109.892 16.814 109.514 15.95C109.154 15.068 108.974 14.123 108.974 13.115ZM116.129 17.894C117.371 17.894 118.424 17.435 119.288 16.517C120.17 15.581 120.611 14.447 120.611 13.115C120.611 11.783 120.17 10.658 119.288 9.74C118.424 8.822 117.371 8.363 116.129 8.363C114.887 8.363 113.825 8.822 112.943 9.74C112.061 10.658 111.62 11.783 111.62 13.115C111.62 14.447 112.052 15.581 112.916 16.517C113.798 17.435 114.869 17.894 116.129 17.894Z" fill="#D89659"/>
</svg>
